<svg width="16" height="16" viewBox="0 0 16 16" fill="none" xmlns="http://www.w3.org/2000/svg">
<path d="M6.23597 14C6.70606 14.4149 7.32355 14.6667 7.99985 14.6667C8.67615 14.6667 9.29365 14.4149 9.76373 14M11.9999 5.33337C11.9999 4.27251 11.5784 3.25509 10.8283 2.50495C10.0781 1.7548 9.06072 1.33337 7.99985 1.33337C6.93898 1.33337 5.92157 1.7548 5.17142 2.50495C4.42128 3.25509 3.99985 4.27251 3.99985 5.33337C3.99985 7.3935 3.48016 8.80401 2.89963 9.73698C2.40993 10.524 2.16509 10.9174 2.17407 11.0272C2.18401 11.1488 2.20976 11.1951 2.3077 11.2678C2.39616 11.3334 2.79491 11.3334 3.59242 11.3334H12.4073C13.2048 11.3334 13.6035 11.3334 13.692 11.2678C13.7899 11.1951 13.8157 11.1488 13.8256 11.0272C13.8346 10.9174 13.5898 10.524 13.1001 9.73698C12.5195 8.80401 11.9999 7.3935 11.9999 5.33337Z" stroke="#BEDBB0" stroke-width="1.5" stroke-linecap="round" stroke-linejoin="round"/>
</svg>
